<?xml version="1.0" encoding="utf-8"?>
<!-- Generator: Adobe Illustrator 25.2.3, SVG Export Plug-In . SVG Version: 6.00 Build 0)  -->
<svg version="1.1" id="Layer_1" xmlns="http://www.w3.org/2000/svg" xmlns:xlink="http://www.w3.org/1999/xlink" x="0px" y="0px"
	 viewBox="0 0 132.4 117.3" style="enable-background:new 0 0 132.4 117.3;" xml:space="preserve">
<style type="text/css">
	.st0{fill:#F7F7F7;}
</style>
<path class="st0" d="M132.4,58.6c0-0.1,0-0.2,0-0.2l0,0c-0.1-3.8-1.1-7.6-3.1-11l-21.3-36c-3.4-5.8-9.2-9.7-15.8-11
	c-1.5-0.3-3-0.4-4.6-0.4h-4.3H67.5l-7.9,13.3L55,21h-6c-1.3,0-2.5,0.3-3.7,0.7c-1.8,0.7-3.3,2-4.3,3.7l-7.5,12.7l-8.4,14.1
	c1.8,1.6,3,3.8,3,6.4C28,61.1,26.9,63.4,25,65l15.9,26.8c1.6,2.8,4.7,4.5,7.9,4.5h3.4L60.3,83h-6c-1.7,0-3.2-0.9-4.1-2.3l-11.9-20
	c-0.4-0.6-0.6-1.3-0.6-2s0.2-1.4,0.6-2l7-11.8l4.9-8.2c0.8-1.4,2.4-2.3,4.1-2.3h8.6L70.8,21l4.6-7.7h9.2h1.2c4.7,0,9,2.4,11.3,6.3
	l18.2,30.6c3.9,0.9,6.9,4.2,7.1,8.3c-0.1,4.2-3.1,7.6-7.1,8.5l-9.5,16L97,97.6c-2.3,3.9-6.6,6.3-11.3,6.3H82l-7.9,13.3h13.4
	c0.8,0,1.6,0,2.4-0.1c7.5-0.7,14.2-4.9,18-11.3l21.3-36c2-3.4,3.1-7.2,3.1-11l0,0C132.4,58.8,132.4,58.7,132.4,58.6z"/>
<path class="st0" d="M83.4,96.2c1.3,0,2.5-0.3,3.7-0.7c1.8-0.7,3.3-2,4.3-3.7l7.5-12.7l8.4-14.1c-1.8-1.6-3-3.8-3-6.4
	c0.1-2.5,1.2-4.8,3.1-6.4L91.3,25.5c-1.6-2.8-4.7-4.5-7.9-4.5H80l-7.9,13.3h6c1.7,0,3.2,0.9,4.1,2.3l11.9,20c0.4,0.6,0.6,1.3,0.6,2
	s-0.2,1.4-0.6,2l-7,11.8l-4.9,8.2c-0.8,1.4-2.4,2.3-4.1,2.3h-8.6l-7.9,13.3l-4.6,7.7h-9.2h-1.2c-4.7,0-9-2.4-11.3-6.3L17.2,67
	c-3.9-0.9-6.9-4.2-7.1-8.3c0.1-4.2,3.1-7.6,7.1-8.5l9.5-16l8.7-14.6c2.3-3.9,6.6-6.3,11.3-6.3h3.7L58.3,0H44.9c-0.8,0-1.6,0-2.4,0.1
	C35,0.9,28.3,5,24.5,11.4l-21.3,36c-2,3.4-3.1,7.2-3.1,11l0,0c0,0.1,0,0.2,0,0.2c0,0.1,0,0.2,0,0.2l0,0c0.1,3.8,1.1,7.6,3.1,11
	l21.3,36c3.4,5.8,9.2,9.7,15.8,11c1.5,0.3,3,0.4,4.6,0.4h4.3H65l7.9-13.3l4.6-7.7C77.5,96.2,83.4,96.2,83.4,96.2z"/>
</svg>
