<?xml version="1.0" encoding="utf-8"?>
<!-- Generator: Adobe Illustrator 25.2.3, SVG Export Plug-In . SVG Version: 6.00 Build 0)  -->
<svg version="1.1" id="Layer_1" xmlns="http://www.w3.org/2000/svg" xmlns:xlink="http://www.w3.org/1999/xlink" x="0px" y="0px"
	 viewBox="0 0 504 117.3" style="enable-background:new 0 0 504 117.3;" xml:space="preserve">
<style type="text/css">
	.st0{fill:#F7F7F7;}
</style>
<g>
	<path class="st0" d="M132.4,58.6c0-0.1,0-0.2,0-0.2h0c-0.1-3.8-1.1-7.6-3.1-11l-21.3-36c-3.4-5.8-9.2-9.7-15.8-11
		c-1.5-0.3-3-0.4-4.6-0.4h-4.3H67.5l-7.9,13.3L55,21h-6c-1.3,0-2.5,0.3-3.7,0.7c-1.8,0.7-3.3,2-4.3,3.7l-7.5,12.7l-8.4,14.1
		c1.8,1.6,3,3.8,3,6.4c-0.1,2.5-1.2,4.8-3.1,6.4l15.9,26.8c1.6,2.8,4.7,4.5,7.9,4.5h3.4L60.3,83h-6c-1.7,0-3.2-0.9-4.1-2.3l-11.9-20
		c-0.4-0.6-0.6-1.3-0.6-2c0-0.7,0.2-1.4,0.6-2l7-11.8l4.9-8.2c0.8-1.4,2.4-2.3,4.1-2.3h8.6L70.8,21l4.6-7.7h9.2h1.2
		c4.7,0,9,2.4,11.3,6.3l18.2,30.6c3.9,0.9,6.9,4.2,7.1,8.3c-0.1,4.2-3.1,7.6-7.1,8.5l-9.5,16L97,97.6c-2.3,3.9-6.6,6.3-11.3,6.3H82
		l-7.9,13.3h13.4c0.8,0,1.6,0,2.4-0.1c7.5-0.7,14.2-4.9,18-11.3l21.3-36c2-3.4,3.1-7.2,3.1-11h0C132.4,58.8,132.4,58.7,132.4,58.6z"
		/>
	<path class="st0" d="M83.4,96.2c1.3,0,2.5-0.3,3.7-0.7c1.8-0.7,3.3-2,4.3-3.7l7.5-12.7l8.4-14.1c-1.8-1.6-3-3.8-3-6.4
		c0.1-2.5,1.2-4.8,3.1-6.4L91.3,25.5c-1.6-2.8-4.7-4.5-7.9-4.5h-3.4l-7.9,13.3h6c1.7,0,3.2,0.9,4.1,2.3l11.9,20
		c0.4,0.6,0.6,1.3,0.6,2c0,0.7-0.2,1.4-0.6,2l-7,11.8l-4.9,8.2c-0.8,1.4-2.4,2.3-4.1,2.3h-8.6l-7.9,13.3l-4.6,7.7h-9.2h-1.2
		c-4.7,0-9-2.4-11.3-6.3L17.2,67c-3.9-0.9-6.9-4.2-7.1-8.3c0.1-4.2,3.1-7.6,7.1-8.5l9.5-16l8.7-14.6c2.3-3.9,6.6-6.3,11.3-6.3h3.7
		L58.3,0H44.9c-0.8,0-1.6,0-2.4,0.1C35,0.9,28.3,5,24.5,11.4l-21.3,36c-2,3.4-3.1,7.2-3.1,11h0c0,0.1,0,0.2,0,0.2c0,0.1,0,0.2,0,0.2
		h0c0.1,3.8,1.1,7.6,3.1,11l21.3,36c3.4,5.8,9.2,9.7,15.8,11c1.5,0.3,3,0.4,4.6,0.4h4.3h15.8l7.9-13.3l4.6-7.7H83.4z"/>
	<g>
		<g>
			<path class="st0" d="M201.2,51.1c-0.4,4.3-3.9,16.2-19.5,16.2c-16,0-19.7-11.9-19.7-20.7c0-13.4,6-23,20.5-23
				c6.7,0,17.8,3,18.9,15.9h-11.4c-0.5-2.7-2.1-6.7-6.9-6.7h-0.6c-7.1,0-8.9,6.9-8.9,12c0,4.5,0.2,13.5,8.7,13.5
				c5.7,0,7.6-5.3,7.6-7.3H201.2z"/>
			<path class="st0" d="M246.9,66.3h-11.2V41c0-3-0.2-8.2-7.3-8.2c-5,0-8.8,3.3-8.8,9.6v23.8h-11.2V10.2h11.2v19.9h0.2
				c1.4-3.4,6.3-6.5,12.4-6.5c8.3,0,14.8,4.8,14.8,13.9V66.3z"/>
			<path class="st0" d="M291.9,58.1c0,4.9,1.1,6,2.5,6.5v1.6h-12.1c-0.6-2-0.8-2.6-1-4.9c-2.6,2.6-6.2,6-13.8,6
				c-6.4,0-13-3.5-13-12.1c0-8.1,5.3-12.3,12.4-13.3l10.1-1.5c1.8-0.2,3.9-0.9,3.9-3.3c0-4.6-4.5-4.8-7.4-4.8
				c-5.6,0-6.6,3.4-6.9,5.8h-10.8c1.3-12.7,10.3-14.5,19.1-14.5c6,0,17,1.8,17,12V58.1z M280.9,46c-1.1,0.9-3,1.6-7.6,2.3
				c-4.2,0.7-7.6,1.7-7.6,6.2c0,3.8,3,5,5.2,5c5,0,10-3.1,10-8.2V46z"/>
			<path class="st0" d="M313.5,19.8h-11.2V9.6h11.2V19.8z M313.5,24.7v41.5h-11.2V24.7H313.5z"/>
			<path class="st0" d="M362.8,66.3h-11.2V41c0-3-0.2-8.2-7.3-8.2c-5,0-8.8,3.3-8.8,9.6v23.8h-11.2V24.7H335v6.1h0.2
				c1.5-2.5,4.7-7.2,12.8-7.2c8.3,0,14.8,4.8,14.8,13.9V66.3z"/>
			<path class="st0" d="M412.2,66.3h-11V61h-0.2c-2.7,4.7-7.7,6.3-12.4,6.3c-12.7,0-18-10.9-18-22.3c0-14.4,8.3-21.4,17.7-21.4
				c7.2,0,10.6,3.8,12.4,6.5h0.2V10.2h11.2V66.3z M391.5,58.4c7.1,0,9.9-5.8,9.9-11.9c0-6.6-1.9-13.4-9.6-13.4
				c-7.1,0-9.5,6.2-9.5,12.7C382.3,50.7,384.3,58.4,391.5,58.4z"/>
			<path class="st0" d="M458.9,54.1c-3,10-11.5,13.3-18.8,13.3c-12,0-21.3-5.6-21.3-22.7c0-5,1.8-21,20.5-21
				c8.4,0,20.1,3.9,20.1,22.9v2h-29.3c0.3,3.1,1,10.2,10,10.2c3.1,0,6.3-1.6,7.2-4.5H458.9z M447.8,41.3c-0.6-6.7-5.1-8.7-8.7-8.7
				c-5.3,0-8.1,3.3-8.7,8.7H447.8z"/>
			<path class="st0" d="M488.6,66.3h-11.8l-15.3-41.5H474l8.8,30.6h0.2l9.1-30.6h12L488.6,66.3z"/>
		</g>
		<g>
			<g>
				<path class="st0" d="M283.7,107V75.9h2.7V107H283.7z"/>
				<path class="st0" d="M310.5,94c0.6-0.1,1.2-0.2,1.9-0.3c0.7-0.1,1.2-0.3,1.6-0.5c0.4-0.2,0.6-0.5,0.8-0.9
					c0.1-0.4,0.2-0.9,0.2-1.4c0-1.4-0.5-2.5-1.4-3.3c-0.9-0.8-2.4-1.2-4.3-1.2c-2,0-3.5,0.4-4.7,1.1c-1.1,0.8-1.8,2.1-2,3.9h-2.7
					c0.2-2.5,1.1-4.4,2.9-5.6c1.7-1.2,3.9-1.8,6.6-1.8c2.5,0,4.6,0.5,6.1,1.6c1.5,1.1,2.3,2.9,2.3,5.3v12.2c0,1.4,0.4,2.1,1.2,2.1
					c0.4,0,0.9-0.1,1.6-0.3v2c-0.4,0.1-0.7,0.2-1.1,0.3c-0.4,0.1-0.7,0.1-1,0.1c-0.4,0-0.8,0-1.2-0.1c-0.8-0.1-1.3-0.5-1.6-1
					c-0.3-0.6-0.5-1.3-0.5-2.3c-1.1,1.2-2.4,2.1-3.9,2.8c-1.5,0.6-3,1-4.7,1c-2.2,0-4-0.6-5.5-1.7c-1.5-1.1-2.2-2.7-2.2-4.8
					c0-3.8,2.7-6,8-6.7L310.5,94z M315,95.3c-1,0.4-2,0.7-3,0.8c-1,0.2-2.3,0.3-3.8,0.4c-2.1,0.1-3.7,0.6-4.8,1.4
					c-1.1,0.8-1.7,1.9-1.7,3.4c0,1.3,0.5,2.3,1.5,3c1,0.7,2.1,1,3.5,1c1.1,0,2.1-0.1,3.1-0.4c1-0.3,1.9-0.7,2.7-1.2
					c0.8-0.5,1.4-1.2,1.9-2.1c0.5-0.8,0.7-1.8,0.7-2.9V95.3z"/>
				<path class="st0" d="M334.4,107h-2.7V75.9h2.7v12.3c0.8-1.3,2-2.4,3.5-3.1c1.5-0.7,3.1-1.1,4.7-1.1c1.7,0,3.2,0.3,4.5,0.9
					c1.3,0.6,2.4,1.5,3.2,2.6c0.9,1.1,1.5,2.4,1.9,3.8c0.4,1.4,0.6,2.9,0.6,4.5c0,1.7-0.2,3.3-0.6,4.7s-1,2.7-1.8,3.7
					c-0.8,1.1-1.9,1.9-3.2,2.5c-1.3,0.6-2.9,0.9-4.7,0.9c-1.5,0-3.1-0.4-4.6-1.2c-1.5-0.8-2.7-1.9-3.4-3.3h-0.1V107z M336.5,102.6
					c1.4,1.8,3.3,2.7,5.7,2.7c2.3,0,4.2-0.8,5.6-2.3c1.5-1.6,2.2-3.7,2.2-6.4c0-3.1-0.7-5.6-2-7.4c-1.3-1.8-3.3-2.7-5.9-2.7
					c-1.2,0-2.3,0.2-3.2,0.7c-1,0.5-1.8,1.2-2.5,2c-0.7,0.9-1.2,1.9-1.6,3c-0.4,1.1-0.5,2.3-0.5,3.6
					C334.4,98.5,335.1,100.8,336.5,102.6z"/>
				<path class="st0" d="M366.9,100c0.4,1.9,1.2,3.3,2.2,4.1c1.1,0.8,2.6,1.2,4.6,1.2c1.8,0,3.2-0.4,4.2-1.2c1-0.8,1.5-1.8,1.5-2.9
					c0-0.7-0.2-1.3-0.5-1.8c-0.3-0.5-0.8-0.9-1.4-1.2c-0.6-0.3-1.2-0.5-2-0.7c-0.7-0.2-1.6-0.4-2.7-0.6c-1.3-0.3-2.4-0.5-3.3-0.8
					c-0.9-0.2-1.7-0.6-2.4-1c-0.8-0.4-1.4-1-1.8-1.8c-0.5-0.8-0.7-1.7-0.7-2.8c0-1.9,0.7-3.4,2.2-4.6c1.4-1.2,3.4-1.8,5.9-1.8
					c2.6,0,4.6,0.6,6.1,1.7c1.5,1.1,2.4,2.9,2.8,5.4h-2.7c-0.2-1.6-0.9-2.8-2-3.6c-1.1-0.7-2.5-1.1-4.3-1.1c-1.7,0-2.9,0.3-3.8,1
					c-0.9,0.7-1.4,1.6-1.4,2.8c0,0.7,0.2,1.2,0.5,1.7s0.8,0.9,1.4,1.1c0.6,0.3,1.2,0.5,1.9,0.7c0.7,0.2,1.6,0.4,2.7,0.7
					c1.4,0.3,2.5,0.6,3.3,0.9c0.8,0.3,1.6,0.6,2.4,1.1c0.8,0.5,1.4,1.1,1.9,1.8c0.5,0.7,0.7,1.7,0.7,2.8c0,2.1-0.9,3.7-2.6,4.8
					c-1.7,1.1-4,1.7-6.8,1.7c-2.6,0-4.7-0.7-6.3-2.2c-1.5-1.4-2.4-3.3-2.5-5.4H366.9z"/>
			</g>
			<rect x="401.5" y="91" class="st0" width="102.5" height="1.5"/>
			<rect x="162" y="91" class="st0" width="102.5" height="1.5"/>
		</g>
	</g>
</g>
</svg>
