<?xml version="1.0" encoding="utf-8"?>
<!-- Generator: Adobe Illustrator 26.0.2, SVG Export Plug-In . SVG Version: 6.00 Build 0)  -->
<svg version="1.1" id="Layer_1" xmlns="http://www.w3.org/2000/svg" xmlns:xlink="http://www.w3.org/1999/xlink" x="0px" y="0px"
	 viewBox="0 0 90 40" style="enable-background:new 0 0 90 40;" xml:space="preserve">
<style type="text/css">
	.st0{fill:#FFC107;}
	.st1{fill:#FF3D00;}
	.st2{fill:#4CAF50;}
	.st3{fill:#1976D2;}
	.st4{fill:#F7F7F7;}
</style>
<g>
	<g>
		<path class="st0" d="M39.6,16.1H38V16H20v8h11.3c-1.6,4.7-6.1,8-11.3,8c-6.6,0-12-5.4-12-12S13.4,8,20,8c3.1,0,5.8,1.2,8,3
			l5.7-5.7C30,2.1,25.3,0,20,0C8.9,0,0,9,0,20s9,20,20,20s20-9,20-20C40,18.7,39.8,17.4,39.6,16.1z"/>
	</g>
	<g>
		<path class="st1" d="M2.3,10.7l6.6,4.8C10.6,11.1,14.9,8,20,8c3.1,0,5.8,1.2,8,3l5.7-5.7C30,2.1,25.3,0,20,0
			C12.3,0,5.6,4.3,2.3,10.7z"/>
	</g>
	<g>
		<path class="st2" d="M20,40c5.2,0,9.9-2,13.4-5.2l-6.2-5.2c-2,1.5-4.5,2.4-7.2,2.4c-5.2,0-9.6-3.3-11.3-7.9l-6.5,5
			C5.5,35.6,12.2,40,20,40z"/>
	</g>
	<g>
		<path class="st3" d="M39.6,16.1H38V16H20v8h11.3c-0.8,2.2-2.2,4.2-4.1,5.6c0,0,0,0,0,0l6.2,5.2C33,35.2,40,30,40,20
			C40,18.7,39.8,17.4,39.6,16.1z"/>
	</g>
</g>
<g>
	<path class="st4" d="M49.6,20.4h-1.4v3.1h-1.8V15h3.2c1,0,1.8,0.2,2.3,0.7s0.8,1.1,0.8,1.9c0,0.6-0.1,1.1-0.4,1.5s-0.6,0.7-1.1,0.9
		l1.8,3.5v0.1h-1.9L49.6,20.4z M48.2,19h1.4c0.4,0,0.8-0.1,1-0.3s0.4-0.5,0.4-0.9c0-0.4-0.1-0.7-0.3-0.9s-0.6-0.3-1.1-0.3h-1.4V19z"
		/>
	<path class="st4" d="M56.9,23.6c-0.9,0-1.7-0.3-2.3-0.9s-0.9-1.3-0.9-2.3v-0.2c0-0.6,0.1-1.2,0.4-1.7s0.6-0.9,1-1.2s1-0.4,1.5-0.4
		c0.9,0,1.5,0.3,2,0.8s0.7,1.3,0.7,2.3v0.7h-4c0.1,0.4,0.2,0.7,0.5,1s0.6,0.4,1,0.4c0.7,0,1.2-0.2,1.5-0.7l0.8,0.9
		c-0.3,0.4-0.6,0.6-1,0.8S57.4,23.6,56.9,23.6z M56.7,18.4c-0.3,0-0.6,0.1-0.8,0.3s-0.3,0.6-0.4,1h2.4v-0.1c0-0.4-0.1-0.7-0.3-0.9
		S57,18.4,56.7,18.4z"/>
	<path class="st4" d="M62.7,21.4l1.2-4.3h1.8l-2.1,6.3h-1.6l-2.1-6.3h1.8L62.7,21.4z"/>
	<path class="st4" d="M66.4,15.5c0-0.3,0.1-0.5,0.3-0.6s0.4-0.2,0.7-0.2c0.3,0,0.5,0.1,0.7,0.2s0.3,0.4,0.3,0.6
		c0,0.3-0.1,0.5-0.3,0.6s-0.4,0.2-0.7,0.2s-0.5-0.1-0.7-0.2S66.4,15.8,66.4,15.5z M68.2,23.5h-1.7v-6.3h1.7V23.5z"/>
	<path class="st4" d="M72.5,23.6c-0.9,0-1.7-0.3-2.3-0.9s-0.9-1.3-0.9-2.3v-0.2c0-0.6,0.1-1.2,0.4-1.7s0.6-0.9,1-1.2s1-0.4,1.5-0.4
		c0.9,0,1.5,0.3,2,0.8s0.7,1.3,0.7,2.3v0.7h-4c0.1,0.4,0.2,0.7,0.5,1s0.6,0.4,1,0.4c0.7,0,1.2-0.2,1.5-0.7l0.8,0.9
		c-0.3,0.4-0.6,0.6-1,0.8S73.1,23.6,72.5,23.6z M72.3,18.4c-0.3,0-0.6,0.1-0.8,0.3s-0.3,0.6-0.4,1h2.4v-0.1c0-0.4-0.1-0.7-0.3-0.9
		S72.7,18.4,72.3,18.4z"/>
	<path class="st4" d="M81.6,21.2l0.8-4h1.6l-1.6,6.3h-1.4l-1.2-4l-1.2,4h-1.4l-1.6-6.3h1.6l0.8,4l1.2-4h1.2L81.6,21.2z"/>
	<path class="st4" d="M88.4,21.8c0-0.2-0.1-0.4-0.3-0.5s-0.5-0.2-1-0.3c-1.5-0.3-2.3-1-2.3-1.9c0-0.6,0.2-1,0.7-1.4s1.1-0.6,1.8-0.6
		c0.8,0,1.4,0.2,1.9,0.6s0.7,0.9,0.7,1.5h-1.7c0-0.2-0.1-0.4-0.2-0.6s-0.4-0.2-0.7-0.2c-0.3,0-0.5,0.1-0.7,0.2s-0.2,0.3-0.2,0.5
		c0,0.2,0.1,0.3,0.3,0.5s0.5,0.2,0.9,0.3s0.8,0.2,1.1,0.3c0.9,0.3,1.3,0.9,1.3,1.7c0,0.6-0.2,1-0.7,1.4s-1.1,0.5-1.9,0.5
		c-0.5,0-1-0.1-1.4-0.3s-0.7-0.4-1-0.8s-0.4-0.7-0.4-1.1h1.6c0,0.3,0.1,0.5,0.3,0.7s0.5,0.2,0.8,0.2c0.3,0,0.6-0.1,0.7-0.2
		S88.4,22,88.4,21.8z"/>
</g>
</svg>
