<svg xmlns="http://www.w3.org/2000/svg"><symbol id="chevron-up" viewBox="0 0 448 512"><path fill="currentColor" d="M4.465 366.475l7.07 7.071c4.686 4.686 12.284 4.686 16.971 0L224 178.053l195.494 195.493c4.686 4.686 12.284 4.686 16.971 0l7.07-7.071c4.686-4.686 4.686-12.284 0-16.97l-211.05-211.051c-4.686-4.686-12.284-4.686-16.971 0L4.465 349.505c-4.687 4.686-4.687 12.284 0 16.97z"/></symbol><symbol id="database" viewBox="0 0 448 512"><g class="fa-group"><path fill="currentColor" d="M447 73.14v45.72C447 159.14 346.67 192 223 192S-1 159.14-1 118.86V73.14C-1 32.86 99.33 0 223 0s224 32.86 224 73.14z" class="fa-secondary" opacity=".4"/><path fill="currentColor" d="M-1 336v102.86C-1 479.14 99.33 512 223 512s224-32.86 224-73.14V336c-48.13 33.14-136.21 48.57-224 48.57S47.12 369.14-1 336zm224-111.43c-87.79 0-175.88-15.43-224-48.57v102.86C-1 319.14 99.33 352 223 352s224-32.86 224-73.14V176c-48.13 33.14-136.21 48.57-224 48.57z" class="fa-primary"/></g></symbol><symbol id="chevron-down" viewBox="0 0 448 512"><path fill="currentColor" d="M443.5 162.6l-7.1-7.1c-4.7-4.7-12.3-4.7-17 0L224 351 28.5 155.5c-4.7-4.7-12.3-4.7-17 0l-7.1 7.1c-4.7 4.7-4.7 12.3 0 17l211 211.1c4.7 4.7 12.3 4.7 17 0l211-211.1c4.8-4.7 4.8-12.3.1-17z"/></symbol><symbol id="code" viewBox="0 0 640 512"><g class="fa-group"><path fill="currentColor" d="M422.12 18.16a12 12 0 0 1 8.2 14.9l-136.5 470.2a12 12 0 0 1-14.89 8.2l-61-17.7a12 12 0 0 1-8.2-14.9l136.5-470.2a12 12 0 0 1 14.89-8.2z" class="fa-secondary" opacity=".4"/><path fill="currentColor" d="M636.23 247.26l-144.11-135.2a12.11 12.11 0 0 0-17 .5L431.62 159a12 12 0 0 0 .81 17.2L523 256l-90.59 79.7a11.92 11.92 0 0 0-.81 17.2l43.5 46.4a12 12 0 0 0 17 .6l144.11-135.1a11.94 11.94 0 0 0 .02-17.54zm-427.8-88.2l-43.5-46.4a12 12 0 0 0-17-.5l-144.11 135a11.94 11.94 0 0 0 0 17.5l144.11 135.1a11.92 11.92 0 0 0 17-.5l43.5-46.4a12 12 0 0 0-.81-17.2L117 256l90.6-79.7a11.92 11.92 0 0 0 .83-17.24z" class="fa-primary"/></g></symbol><symbol id="telegram" viewBox="0 0 448 512"><path d="M400 32H48C21.5 32 0 53.5 0 80v352c0 26.5 21.5 48 48 48h352c26.5 0 48-21.5 48-48V80c0-26.5-21.5-48-48-48zm-20.8 116.9l-47.1 222.2c-3.6 15.7-12.8 19.6-26 12.2l-71.8-52.9-34.6 33.3c-3.8 3.8-7 7-14.4 7l5.2-73.1 133-120.2c5.8-5.2-1.3-8-9-2.9L150 278.1 79.2 256c-15.4-4.8-15.7-15.4 3.2-22.8l277-106.7c12.8-4.8 24 2.8 19.8 22.4z"/></symbol><symbol id="profile" viewBox="0 0 496 512"><g class="fa-group"><path fill="currentColor" d="M248 8C111 8 0 119 0 256s111 248 248 248 248-111 248-248S385 8 248 8zm0 96a88 88 0 1 1-88 88 88 88 0 0 1 88-88zm0 344a191.61 191.61 0 0 1-146.5-68.2c18.8-35.4 55.6-59.8 98.5-59.8a24.76 24.76 0 0 1 7.1 1.1 124.67 124.67 0 0 0 81.8 0 24.76 24.76 0 0 1 7.1-1.1c42.9 0 79.7 24.4 98.5 59.8A191.61 191.61 0 0 1 248 448z" class="fa-secondary" opacity=".4"/><path fill="currentColor" d="M248 280a88 88 0 1 0-88-88 88 88 0 0 0 88 88zm48 40a24.76 24.76 0 0 0-7.1 1.1 124.67 124.67 0 0 1-81.8 0 24.76 24.76 0 0 0-7.1-1.1c-42.9 0-79.7 24.4-98.5 59.8 68.07 80.91 188.84 91.32 269.75 23.25a192 192 0 0 0 23.25-23.25C375.7 344.4 338.9 320 296 320z" class="fa-primary"/></g></symbol><symbol id="twitter" viewBox="0 0 448 512"><path fill="currentColor" d="M400 32H48C21.5 32 0 53.5 0 80v352c0 26.5 21.5 48 48 48h352c26.5 0 48-21.5 48-48V80c0-26.5-21.5-48-48-48zm-48.9 158.8c.2 2.8.2 5.7.2 8.5 0 86.7-66 186.6-186.6 186.6-37.2 0-71.7-10.8-100.7-29.4 5.3.6 10.4.8 15.8.8 30.7 0 58.9-10.4 81.4-28-28.8-.6-53-19.5-61.3-45.5 10.1 1.5 19.2 1.5 29.6-1.2-30-6.1-52.5-32.5-52.5-64.4v-.8c8.7 4.9 18.9 7.9 29.6 8.3a65.447 65.447 0 0 1-29.2-54.6c0-12.2 3.2-23.4 8.9-33.1 32.3 39.8 80.8 65.8 135.2 68.6-9.3-44.5 24-80.6 64-80.6 18.9 0 35.9 7.9 47.9 20.7 14.8-2.8 29-8.3 41.6-15.8-4.9 15.2-15.2 28-28.8 36.1 13.2-1.4 26-5.1 37.8-10.2-8.9 13.1-20.1 24.7-32.9 34z"/></symbol><symbol id="clock" viewBox="0 0 512 512"><g class="fa-group"><path fill="currentColor" d="M256 8C119 8 8 119 8 256s111 248 248 248 248-111 248-248S393 8 256 8zm92.49 313l-20 25a16 16 0 0 1-22.49 2.5l-67-49.72a40 40 0 0 1-15-31.23V112a16 16 0 0 1 16-16h32a16 16 0 0 1 16 16v144l58 42.5a16 16 0 0 1 2.49 22.5z" class="fa-secondary" opacity=".4"/><path fill="currentColor" d="M348.49 321l-20 25a16 16 0 0 1-22.49 2.5l-67-49.72a40 40 0 0 1-15-31.23V112a16 16 0 0 1 16-16h32a16 16 0 0 1 16 16v144l58 42.5a16 16 0 0 1 2.49 22.5z" class="fa-primary"/></g></symbol><symbol id="discord" viewBox="0 0 448 512"><path d="M282.3 234c-17.5 0-31.5 15.8-31.5 35.3s14.2 35.3 31.5 35.3c17.7 0 31.5-15.8 31.5-35.3.2-19.3-13.9-35.3-31.5-35.3zM166 234c-17.5 0-31.5 15.8-31.5 35.3s14.2 35.3 31.5 35.3c17.5 0 31.5-15.8 31.5-35.3.2-19.3-13.9-35.3-31.5-35.3z"/><path d="M400 32H48C21.5 32 0 53.5 0 80v352c0 26.5 21.5 48 48 48h352c26.5 0 48-21.5 48-48V80c0-26.5-21.5-48-48-48zm-2.5 312.3c0 .3-.2.6-.5.8-26.5 19.6-56.1 34.5-87.5 44.2-.5.1-1 0-1.2-.4-6.7-9.2-12.6-18.9-17.9-29.1 0 0 0-.1-.1-.1-.2-.6.1-1.2.6-1.4 9.5-3.6 18.6-7.9 27.3-13l.3-.3c.4-.5.3-1.2-.2-1.6-1.8-1.4-3.7-2.8-5.4-4.3-.3-.3-.8-.3-1.1-.1-56.6 26.1-118.6 26.1-175.9 0-.4-.2-.8-.1-1.1.2-1.8 1.4-3.6 2.9-5.4 4.2l-.3.3c-.3.5-.1 1.2.4 1.5 8.7 5.1 17.9 9.4 27.3 13 0 0 .1 0 .1.1.5.3.8.9.5 1.5-5.2 10.2-11.1 19.9-17.9 29.1-.3.4-.8.5-1.2.4-31.4-9.7-61-24.6-87.4-44.2-.3-.2-.4-.5-.5-.8-6.1-65.3 6.3-131.4 51.7-199.1.1-.2.3-.3.5-.4 22.7-10.4 46.6-17.8 71.2-22.1.5-.1.9.1 1.1.5 3.3 5.9 6.3 12 9 18.2 26.5-4 53.5-4 80 0 2.6-6.2 5.6-12.3 8.9-18.2.2-.4.7-.6 1.1-.5 24.6 4.3 48.5 11.7 71.2 22.1.2.1.4.2.5.4 39.7 58.1 59.2 123.7 51.9 199.1z"/></symbol><symbol id="browser" viewBox="0 0 512 512"><g class="fa-group"><path fill="currentColor" d="M288 160a32 32 0 1 0-32-32 32 32 0 0 0 32 32zm-96 0a32 32 0 1 0-32-32 32 32 0 0 0 32 32zM0 224v208a48 48 0 0 0 48 48h416a48 48 0 0 0 48-48V224z" class="fa-secondary" opacity=".4"/><path fill="currentColor" d="M464 32H48A48 48 0 0 0 0 80v144h512V80a48 48 0 0 0-48-48zM96 160a32 32 0 1 1 32-32 32 32 0 0 1-32 32zm96 0a32 32 0 1 1 32-32 32 32 0 0 1-32 32zm96 0a32 32 0 1 1 32-32 32 32 0 0 1-32 32z" class="fa-primary"/></g></symbol><symbol id="chevron-circle-right" viewBox="0 0 512 512"><g class="fa-group"><path fill="currentColor" d="M256 8C119 8 8 119 8 256s111 248 248 248 248-111 248-248S393 8 256 8zm113.9 265L234.4 408.5a23.9 23.9 0 0 1-33.9 0l-17-17a23.9 23.9 0 0 1 0-33.9L285.1 256 183.5 154.4a23.9 23.9 0 0 1 0-33.9l17-17a23.9 23.9 0 0 1 33.9 0L369.9 239a24 24 0 0 1 0 34z" class="fa-secondary" opacity=".4"/><path fill="currentColor" d="M369.9 273L234.4 408.5a23.9 23.9 0 0 1-33.9 0l-17-17a23.9 23.9 0 0 1 0-33.9L285.1 256 183.5 154.4a23.9 23.9 0 0 1 0-33.9l17-17a23.9 23.9 0 0 1 33.9 0L369.9 239a24 24 0 0 1 0 34z" class="fa-primary"/></g></symbol></svg>